<?xml version="1.0" standalone="no"?>
<!DOCTYPE svg PUBLIC "-//W3C//DTD SVG 20010904//EN"
 "http://www.w3.org/TR/2001/REC-SVG-20010904/DTD/svg10.dtd">
<svg version="1.0" xmlns="http://www.w3.org/2000/svg"
 width="455.000000pt" height="74.000000pt" viewBox="0 0 455.000000 74.000000"
 preserveAspectRatio="xMidYMid meet">

<g transform="translate(0.000000,74.000000) scale(0.100000,-0.100000)"
fill="#000000" stroke="none">
<path d="M1621 405 c-33 -135 -61 -247 -61 -251 0 -3 8 -4 17 -2 13 2 30 57
79 251 54 219 60 247 44 247 -15 0 -28 -41 -79 -245z"/>
<path d="M3145 638 c-2 -7 -31 -120 -63 -250 -51 -205 -57 -237 -43 -240 13
-3 27 40 78 241 34 135 59 249 57 253 -8 12 -24 10 -29 -4z"/>
<path d="M140 122 l0 -22 558 0 c308 0 614 -3 680 -7 120 -6 122 -6 122 15 l0
22 -492 0 c-271 0 -577 3 -680 7 -188 6 -188 6 -188 -15z"/>
<path d="M1610 107 c0 -11 91 -15 488 -20 745 -10 872 -9 872 6 0 18 -300 27
-907 27 -371 0 -453 -2 -453 -13z"/>
<path d="M3228 103 c-122 -3 -148 -6 -148 -18 0 -18 94 -19 863 -8 405 5 497
9 497 20 0 11 -94 13 -532 11 -293 -1 -599 -4 -680 -5z"/>
</g>
</svg>
