<?xml version="1.0" standalone="no"?>
<!DOCTYPE svg PUBLIC "-//W3C//DTD SVG 20010904//EN"
 "http://www.w3.org/TR/2001/REC-SVG-20010904/DTD/svg10.dtd">
<svg version="1.0" xmlns="http://www.w3.org/2000/svg"
 width="469.000000pt" height="497.000000pt" viewBox="0 0 469.000000 497.000000"
 preserveAspectRatio="xMidYMid meet">

<g transform="translate(0.000000,497.000000) scale(0.100000,-0.100000)"
fill="#000000" stroke="none">
<path d="M2210 4389 c-827 -95 -1506 -688 -1705 -1489 -44 -178 -50 -235 -50
-475 1 -211 3 -241 28 -358 95 -449 308 -815 637 -1099 610 -525 1466 -637
2185 -284 203 100 344 197 499 346 289 276 478 609 565 990 64 284 61 612 -10
891 -200 797 -877 1384 -1704 1479 -105 12 -337 11 -445 -1z m473 -54 c1100
-144 1848 -1157 1651 -2235 -113 -621 -544 -1157 -1135 -1411 -367 -159 -798
-199 -1189 -112 -175 38 -280 76 -455 163 -195 97 -312 179 -468 330 -178 171
-284 314 -390 526 -145 289 -205 572 -194 914 13 392 136 742 373 1061 314
422 811 709 1329 767 128 15 355 13 478 -3z"/>
<path d="M2445 4243 c-53 -13 -85 -73 -85 -162 0 -105 43 -171 110 -171 69 0
110 66 110 176 0 86 -19 131 -64 149 -37 16 -38 16 -71 8z m71 -68 c21 -33 22
-157 1 -189 -24 -35 -55 -39 -84 -10 -23 23 -25 31 -22 108 3 51 9 89 18 99
21 26 68 21 87 -8z"/>
<path d="M3322 3960 c-15 -19 -31 -30 -47 -30 -18 0 -25 -5 -25 -20 0 -16 7
-20 35 -20 l35 0 0 -115 0 -115 25 0 25 0 0 165 c0 179 -5 193 -48 135z"/>
<path d="M1403 3910 c-29 -12 -63 -67 -63 -103 0 -35 24 -83 49 -97 25 -13 77
-13 102 0 24 13 26 -8 4 -50 -22 -43 -62 -50 -91 -17 -31 36 -63 37 -56 1 5
-29 54 -64 90 -64 36 0 80 28 99 63 25 46 25 191 0 229 -28 41 -86 57 -134 38z
m91 -62 c22 -31 20 -64 -4 -88 -42 -42 -100 -16 -100 45 0 18 7 41 16 49 23
24 70 20 88 -6z"/>
<path d="M2255 3806 c-579 -96 -1016 -522 -1132 -1103 -12 -63 -17 -136 -17
-258 0 -188 13 -280 64 -436 190 -581 741 -966 1340 -935 325 16 612 139 850
363 197 186 327 412 398 693 25 97 27 121 27 315 0 194 -2 218 -27 315 -71
281 -201 507 -398 693 -183 172 -389 281 -640 338 -112 26 -355 33 -465 15z
m382 -32 c563 -83 1015 -536 1108 -1106 19 -119 19 -327 0 -446 -131 -804
-943 -1307 -1705 -1056 -388 128 -714 458 -839 849 -54 166 -66 245 -66 430 0
126 5 192 18 255 60 277 180 507 365 695 296 303 705 441 1119 379z"/>
<path d="M3838 3464 c-32 -17 -48 -43 -48 -78 0 -38 31 -33 50 7 12 25 22 33
48 35 41 4 62 -12 62 -47 0 -29 -23 -55 -80 -89 -52 -31 -80 -65 -87 -106 l-6
-36 112 0 c104 0 111 1 111 20 0 18 -7 20 -85 20 -47 0 -85 4 -85 8 0 13 40
46 92 75 57 33 78 61 78 105 0 46 -16 71 -55 88 -43 18 -73 17 -107 -2z"/>
<path d="M743 2706 c-51 -23 -69 -80 -39 -121 12 -17 12 -22 -5 -44 -23 -29
-25 -88 -4 -118 35 -50 137 -53 181 -6 30 32 32 90 5 124 -17 22 -17 27 -5 44
21 29 17 78 -8 102 -31 28 -85 36 -125 19z m85 -48 c38 -38 -12 -93 -63 -70
-46 21 -27 82 25 82 14 0 31 -5 38 -12z m7 -134 c24 -25 16 -75 -16 -93 -57
-32 -117 41 -73 90 21 23 67 25 89 3z"/>
<path d="M3968 2469 c-24 -9 -58 -61 -58 -88 0 -6 11 -11 25 -11 17 0 25 5 25
18 0 27 20 42 55 42 36 0 55 -15 55 -45 0 -29 -19 -45 -52 -45 -21 0 -28 -5
-28 -20 0 -14 7 -20 23 -20 40 0 69 -28 65 -63 -6 -62 -93 -71 -120 -12 -7 16
-19 25 -34 25 -21 0 -22 -3 -14 -31 13 -43 35 -65 72 -73 82 -16 148 28 148
99 0 29 -6 47 -20 60 -17 16 -18 20 -5 38 34 49 8 110 -53 127 -43 12 -48 12
-84 -1z"/>
<path d="M860 1720 c0 -18 7 -20 85 -20 47 0 85 -3 85 -6 0 -3 -11 -20 -24
-37 -34 -44 -86 -157 -93 -201 -5 -33 -4 -36 18 -36 21 0 26 7 36 51 14 56 61
155 99 204 45 60 38 65 -91 65 -108 0 -115 -1 -115 -20z"/>
<path d="M3567 1424 c-43 -59 -77 -115 -77 -125 0 -16 10 -19 73 -21 l72 -3 3
-37 c3 -30 7 -38 23 -38 16 0 19 7 19 40 0 36 3 40 25 40 18 0 25 5 25 20 0
15 -7 20 -25 20 l-25 0 0 105 c0 141 -11 141 -113 -1z m63 -44 l0 -60 -44 0
-45 0 41 60 c23 33 43 60 45 60 2 0 3 -27 3 -60z"/>
<path d="M1633 1186 c-55 -25 -84 -118 -69 -219 12 -79 78 -121 151 -97 43 14
68 57 67 114 -1 33 -7 47 -33 69 -25 23 -38 28 -68 25 -20 -3 -45 -8 -55 -13
-17 -7 -18 -5 -12 21 7 29 48 74 67 74 5 0 21 -11 35 -25 33 -33 68 -34 59 -2
-17 55 -82 80 -142 53z m87 -173 c25 -32 20 -69 -12 -96 -24 -20 -55 -15 -80
15 -23 27 -23 49 3 82 27 34 62 34 89 -1z"/>
<path d="M2686 928 c-4 -29 -10 -70 -13 -90 -5 -33 -3 -38 13 -38 11 0 28 7
38 15 46 35 106 6 106 -51 0 -35 -8 -47 -37 -63 -27 -14 -67 0 -83 29 -13 25
-50 27 -50 2 0 -49 71 -90 135 -78 82 16 115 127 55 188 -27 27 -36 30 -80 26
-53 -3 -57 1 -44 50 6 20 12 22 75 22 62 0 69 2 69 20 0 18 -7 20 -89 20 l-88
0 -7 -52z"/>
</g>
</svg>
