<?xml version="1.0" encoding="utf-8"?>
<svg viewBox="0 0 952.77 338.7" xmlns="http://www.w3.org/2000/svg">
  <path d="M393.22,316.26V122a64.71,64.71,0,0,1,64.71-64.71l57.35.08A64.62,64.62,0,0,1,579.77,122v41.34a64.72,64.72,0,0,1-64.71,64.72H434" fill="none" stroke="#939598" stroke-linecap="round" stroke-linejoin="round" stroke-width="6.26"/>
  <path d="M595.8,57.28h24.88a26.56,26.56,0,0,1,26.56,26.56v145.1" fill="none" stroke="#939598" stroke-linecap="round" stroke-linejoin="round" stroke-width="6.26"/>
  <path d="M641.9,34.8,630.62,23.51a7.16,7.16,0,0,1,0-10.13L641.9,2.1a7.18,7.18,0,0,1,10.15,0l11.27,11.28a7.16,7.16,0,0,1,0,10.13L652,34.8a7.17,7.17,0,0,1-10.14,0" fill="#32bcad"/>
  <path d="M695,57.15h24.67a47.85,47.85,0,0,1,33.84,14l57.71,57.71a19.13,19.13,0,0,0,27.07,0l57.5-57.49a47.81,47.81,0,0,1,33.83-14h20.06" fill="none" stroke="#939598" stroke-linecap="round" stroke-linejoin="round" stroke-width="6.26"/>
  <path d="M695,227.67h24.67a47.86,47.86,0,0,0,33.84-14l57.71-57.71a19.15,19.15,0,0,1,27.07,0l57.5,57.5a47.84,47.84,0,0,0,33.83,14h20.06" fill="none" stroke="#939598" stroke-linecap="round" stroke-linejoin="round" stroke-width="6.26"/>
  <path d="M246.13,264.53A46.07,46.07,0,0,1,213.35,251L166,203.62a9,9,0,0,0-12.44,0l-47.51,47.51A46.09,46.09,0,0,1,73.27,264.7H64l60,60a48,48,0,0,0,67.81,0l60.12-60.13Z" fill="#32bcad"/>
  <path d="M73.28,97.09a46.08,46.08,0,0,1,32.78,13.57l47.51,47.52a8.81,8.81,0,0,0,12.44,0l47.34-47.34a46,46,0,0,1,32.78-13.58h5.7L191.71,37.14a47.94,47.94,0,0,0-67.81,0L64,97.09Z" fill="#32bcad"/>
  <path d="M301.56,147l-36.33-36.33a7,7,0,0,1-2.58.52H246.13a32.62,32.62,0,0,0-22.93,9.5L175.86,168a22.74,22.74,0,0,1-32.13,0L96.21,120.51A32.62,32.62,0,0,0,73.28,111H53a7.12,7.12,0,0,1-2.44-.49L14,147a48,48,0,0,0,0,67.81l36.48,36.48a6.85,6.85,0,0,1,2.44-.49H73.28a32.63,32.63,0,0,0,22.93-9.51l47.51-47.51c8.59-8.58,23.56-8.58,32.14,0l47.34,47.33a32.62,32.62,0,0,0,22.93,9.5h16.52a6.9,6.9,0,0,1,2.58.52l36.33-36.33a47.94,47.94,0,0,0,0-67.81" fill="#32bcad"/>
</svg>